<svg data-v-0dd9719b="" version="1.0" xmlns="http://www.w3.org/2000/svg" xmlns:xlink="http://www.w3.org/1999/xlink" width="100%" height="100%" viewBox="0 0 340.000000 250.000000" preserveAspectRatio="xMidYMid meet" color-interpolation-filters="sRGB" style="margin: auto;"> <rect data-v-0dd9719b="" x="0" y="0" width="100%" height="100%" fill="#feffff" fill-opacity="1" class="background"></rect> <rect data-v-0dd9719b="" x="0" y="0" width="100%" height="100%" fill="url(#watermark)" fill-opacity="1" class="watermarklayer"></rect> <g data-v-0dd9719b="" fill="#333" class="iconlinesvg-g iconlinesvg" transform="translate(72.63946533203125,96.3045654296875)"><g class="tp-name" transform="translate(0,0)"><g transform="translate(0, 0)"><g><g class="imagesvg"><g><rect fill="#333" fill-opacity="0" stroke-width="2" x="0" y="0" width="47.54066985645933" height="47.54066985645933" class="image-rect"></rect> <svg x="0" y="0" width="47.54066985645933" height="47.54066985645933" filtersec="colorsb1784466273" class="image-svg-svg primary" style="overflow: visible;"><svg xmlns="http://www.w3.org/2000/svg" viewBox="0 0 74.44999694824219 74.44999694824219"><title>资源 44</title><path fill="#0069ae" opacity=".8" d="M0 0h74.45v24.82H0z"></path><path fill="#2799c8" opacity=".8" d="M18.61 0h37.23v74.45H18.61z"></path></svg></svg> <!----></g></g></g></g><g transform="translate(51, 0.6746411483253567)"><g data-gra="path-name" fill="#333" transform="scale(1)"><path d="M15.16-32.53L15.16 0L3.93 0L3.93-32.53L15.16-32.53ZM3.65-40.62L3.65-40.62Q3.65-43.15 5.05-44.38Q6.46-45.62 9.59-45.62L9.59-45.62Q12.72-45.62 14.15-44.35Q15.59-43.09 15.59-40.62L15.59-40.62Q15.59-35.68 9.59-35.68L9.59-35.68Q3.65-35.68 3.65-40.62Z" transform="translate(-3.645933014354067, 45.61722488038278)"></path></g></g><g transform="translate(66, 0.6746411483253567)"><g data-gra="path-name" fill="#333" transform="scale(1)"><path d="M18.69 0.57L18.69 0.57Q10.71 0.57 6.59-3.73Q2.47-8.04 2.47-16.11L2.47-16.11Q2.47-24.20 6.92-28.65Q11.37-33.10 19.58-33.10L19.58-33.10Q25.23-33.10 30.23-30.63L30.23-30.63L26.93-22.33Q24.89-23.22 23.17-23.76Q21.44-24.29 19.58-24.29L19.58-24.29Q16.85-24.29 15.36-22.16Q13.87-20.04 13.87-16.16L13.87-16.16Q13.87-8.35 19.64-8.35L19.64-8.35Q24.57-8.35 29.11-11.22L29.11-11.22L29.11-2.30Q24.78 0.57 18.69 0.57Z" transform="translate(-2.4688995215311005, 45.61722488038278)"></path></g></g><g transform="translate(97, 0.6746411483253567)"><g data-gra="path-name" fill="#333" transform="scale(1)"><path d="M14.53-18.29L14.76-18.29Q16.79-21.53 18.23-23.34L18.23-23.34L25.52-32.53L38.04-32.53L26.76-18.69L38.76 0L25.92 0L18.80-11.66L15.16-8.87L15.16 0L3.88 0L3.88-44.67L15.16-44.67L15.16-27.10Q15.16-22.59 14.53-18.29L14.53-18.29Z" transform="translate(-3.875598086124402, 45.61722488038278)"></path></g></g><g transform="translate(135, 0.6746411483253567)"><g data-gra="path-name" fill="#333" transform="scale(1)"><path d="M19.58 0.57L19.58 0.57Q11.45 0.57 6.96-3.75Q2.47-8.07 2.47-16.05L2.47-16.05Q2.47-24.29 6.63-28.69Q10.79-33.10 18.52-33.10L18.52-33.10Q25.87-33.10 29.87-29.27Q33.88-25.44 33.88-18.23L33.88-18.23L33.88-13.23L13.81-13.23Q13.92-10.51 15.80-8.96Q17.68-7.41 20.93-7.41L20.93-7.41Q23.89-7.41 26.37-7.97Q28.85-8.53 31.75-9.88L31.75-9.88L31.75-1.81Q29.11-0.46 26.30 0.06Q23.48 0.57 19.58 0.57ZM18.92-25.46L18.92-25.46Q16.94-25.46 15.60-24.22Q14.27-22.97 14.04-20.30L14.04-20.30L23.68-20.30Q23.63-22.65 22.35-24.06Q21.07-25.46 18.92-25.46Z" transform="translate(-2.4688995215311005, 45.61722488038278)"></path></g></g><g transform="translate(170, 0.6746411483253567)"><g data-gra="path-name" fill="#333" transform="scale(1)"><path d="M19.81-8.30L19.81-8.30Q22.08-8.30 25.23-9.42L25.23-9.42L25.23-1.23Q22.97-0.26 20.91 0.16Q18.86 0.57 16.11 0.57L16.11 0.57Q10.45 0.57 7.95-2.20Q5.45-4.97 5.45-10.71L5.45-10.71L5.45-24.11L1.52-24.11L1.52-28.68L6.52-32.21L9.42-39.04L16.77-39.04L16.77-32.53L24.75-32.53L24.75-24.11L16.77-24.11L16.77-11.45Q16.77-8.30 19.81-8.30Z" transform="translate(-1.5215311004784688, 45.61722488038278)"></path></g></g></g> <g data-gra="path-slogan" fill-rule="" class="tp-slogan" fill="#333" transform="translate(14.989234924316406,50.54066848754883)"><!----> <!----> <g transform="scale(1, 1)"><g transform="scale(0.8999999999999999)"><path d="M1.01 0L1.01-7.35L3.19-7.35Q3.75-7.35 4.22-7.25Q4.68-7.15 5.01-6.93Q5.34-6.72 5.53-6.38Q5.71-6.04 5.71-5.56L5.71-5.56Q5.71-5.01 5.40-4.56Q5.08-4.12 4.44-3.95L4.44-3.95L4.44-3.91Q5.24-3.79 5.69-3.35Q6.14-2.91 6.14-2.15L6.14-2.15Q6.14-1.61 5.94-1.21Q5.73-0.81 5.36-0.54Q5.00-0.27 4.48-0.13Q3.96 0 3.35 0L3.35 0L1.01 0ZM1.94-4.21L3.02-4.21Q3.98-4.21 4.38-4.54Q4.79-4.86 4.79-5.48L4.79-5.48Q4.79-6.08 4.36-6.34Q3.93-6.61 3.07-6.61L3.07-6.61L1.94-6.61L1.94-4.21ZM1.94-0.74L3.21-0.74Q4.17-0.74 4.69-1.09Q5.22-1.44 5.22-2.20L5.22-2.20Q5.22-2.88 4.70-3.20Q4.19-3.52 3.21-3.52L3.21-3.52L1.94-3.52L1.94-0.74ZM10.30 0.13L10.30 0.13Q9.61 0.13 9.03-0.13Q8.46-0.40 8.04-0.90Q7.63-1.40 7.40-2.11Q7.17-2.82 7.17-3.71L7.17-3.71Q7.17-4.59 7.40-5.29Q7.63-5.99 8.04-6.48Q8.46-6.97 9.03-7.22Q9.61-7.48 10.30-7.48L10.30-7.48Q11.00-7.48 11.57-7.22Q12.15-6.95 12.57-6.47Q12.99-5.98 13.22-5.28Q13.45-4.58 13.45-3.71L13.45-3.71Q13.45-2.82 13.22-2.11Q12.99-1.40 12.57-0.90Q12.15-0.40 11.57-0.13Q11.00 0.13 10.30 0.13ZM10.30-0.68L10.30-0.68Q10.80-0.68 11.19-0.90Q11.59-1.11 11.88-1.51Q12.16-1.90 12.32-2.46Q12.48-3.01 12.48-3.71L12.48-3.71Q12.48-4.39 12.32-4.94Q12.16-5.49 11.88-5.87Q11.59-6.25 11.19-6.46Q10.80-6.66 10.30-6.66L10.30-6.66Q9.81-6.66 9.41-6.46Q9.02-6.25 8.73-5.87Q8.44-5.49 8.29-4.94Q8.13-4.39 8.13-3.71L8.13-3.71Q8.13-3.01 8.29-2.46Q8.44-1.90 8.73-1.51Q9.02-1.11 9.41-0.90Q9.81-0.68 10.30-0.68ZM17.74 0.13L17.74 0.13Q17.05 0.13 16.47-0.13Q15.89-0.40 15.48-0.90Q15.06-1.40 14.83-2.11Q14.60-2.82 14.60-3.71L14.60-3.71Q14.60-4.59 14.83-5.29Q15.06-5.99 15.48-6.48Q15.89-6.97 16.47-7.22Q17.05-7.48 17.74-7.48L17.74-7.48Q18.43-7.48 19.01-7.22Q19.59-6.95 20.01-6.47Q20.43-5.98 20.66-5.28Q20.89-4.58 20.89-3.71L20.89-3.71Q20.89-2.82 20.66-2.11Q20.43-1.40 20.01-0.90Q19.59-0.40 19.01-0.13Q18.43 0.13 17.74 0.13ZM17.74-0.68L17.74-0.68Q18.23-0.68 18.63-0.90Q19.03-1.11 19.31-1.51Q19.60-1.90 19.76-2.46Q19.91-3.01 19.91-3.71L19.91-3.71Q19.91-4.39 19.76-4.94Q19.60-5.49 19.31-5.87Q19.03-6.25 18.63-6.46Q18.23-6.66 17.74-6.66L17.74-6.66Q17.25-6.66 16.85-6.46Q16.45-6.25 16.17-5.87Q15.88-5.49 15.72-4.94Q15.57-4.39 15.57-3.71L15.57-3.71Q15.57-3.01 15.72-2.46Q15.88-1.90 16.17-1.51Q16.45-1.11 16.85-0.90Q17.25-0.68 17.74-0.68ZM22.47 0L22.47-7.35L23.40-7.35L23.40-3.66L23.43-3.66L26.49-7.35L27.54-7.35L25.24-4.55L27.90 0L26.86 0L24.66-3.82L23.40-2.33L23.40 0L22.47 0ZM28.95 0L28.95-7.35L29.88-7.35L29.88 0L28.95 0ZM31.90 0L31.90-7.35L32.86-7.35L35.51-2.73L36.31-1.21L36.35-1.21Q36.32-1.77 36.28-2.37Q36.24-2.97 36.24-3.55L36.24-3.55L36.24-7.35L37.13-7.35L37.13 0L36.16 0L33.50-4.63L32.70-6.14L32.66-6.14Q32.70-5.58 32.74-5.00Q32.78-4.42 32.78-3.84L32.78-3.84L32.78 0L31.90 0ZM38.72-3.67L38.72-3.67Q38.72-4.56 38.97-5.26Q39.22-5.97 39.67-6.46Q40.13-6.95 40.74-7.22Q41.36-7.48 42.10-7.48L42.10-7.48Q42.86-7.48 43.37-7.20Q43.88-6.91 44.20-6.57L44.20-6.57L43.68-5.98Q43.40-6.27 43.03-6.47Q42.67-6.66 42.11-6.66L42.11-6.66Q41.55-6.66 41.10-6.46Q40.65-6.25 40.34-5.86Q40.03-5.48 39.85-4.93Q39.68-4.38 39.68-3.70L39.68-3.70Q39.68-3.00 39.84-2.45Q40.00-1.89 40.31-1.50Q40.62-1.11 41.07-0.90Q41.53-0.68 42.12-0.68L42.12-0.68Q42.51-0.68 42.87-0.80Q43.22-0.92 43.44-1.12L43.44-1.12L43.44-3.04L41.89-3.04L41.89-3.81L44.29-3.81L44.29-0.72Q43.94-0.35 43.35-0.11Q42.76 0.13 42.02 0.13L42.02 0.13Q41.29 0.13 40.69-0.12Q40.08-0.38 39.65-0.87Q39.21-1.36 38.96-2.07Q38.72-2.78 38.72-3.67ZM49.23-2.99L51.44-2.99L51.09-4.11Q50.89-4.73 50.71-5.34Q50.53-5.95 50.35-6.59L50.35-6.59L50.31-6.59Q50.14-5.95 49.96-5.34Q49.78-4.73 49.58-4.11L49.58-4.11L49.23-2.99ZM52.37 0L51.67-2.24L49.00-2.24L48.29 0L47.34 0L49.83-7.35L50.88-7.35L53.37 0L52.37 0ZM54.41 0L54.41-7.35L56.66-7.35Q57.26-7.35 57.77-7.23Q58.27-7.12 58.62-6.87Q58.98-6.62 59.17-6.20Q59.37-5.79 59.37-5.19L59.37-5.19Q59.37-4.60 59.17-4.18Q58.98-3.75 58.62-3.47Q58.26-3.19 57.76-3.05Q57.26-2.91 56.66-2.91L56.66-2.91L55.34-2.91L55.34 0L54.41 0ZM55.34-3.67L56.55-3.67Q57.51-3.67 57.97-4.04Q58.44-4.40 58.44-5.19L58.44-5.19Q58.44-5.98 57.97-6.29Q57.50-6.60 56.55-6.60L56.55-6.60L55.34-6.60L55.34-3.67ZM60.86 0L60.86-7.35L63.11-7.35Q63.71-7.35 64.22-7.23Q64.72-7.12 65.08-6.87Q65.43-6.62 65.62-6.20Q65.82-5.79 65.82-5.19L65.82-5.19Q65.82-4.60 65.62-4.18Q65.43-3.75 65.07-3.47Q64.71-3.19 64.21-3.05Q63.71-2.91 63.11-2.91L63.11-2.91L61.79-2.91L61.79 0L60.86 0ZM61.79-3.67L63.00-3.67Q63.96-3.67 64.43-4.04Q64.89-4.40 64.89-5.19L64.89-5.19Q64.89-5.98 64.42-6.29Q63.95-6.60 63.00-6.60L63.00-6.60L61.79-6.60L61.79-3.67ZM69.54-3.04L69.54-7.35L70.47-7.35L70.47-3.01Q70.47-2.35 70.60-1.90Q70.74-1.46 70.97-1.19Q71.20-0.92 71.51-0.80Q71.82-0.68 72.18-0.68L72.18-0.68Q72.55-0.68 72.86-0.80Q73.18-0.92 73.41-1.19Q73.65-1.46 73.78-1.90Q73.92-2.35 73.92-3.01L73.92-3.01L73.92-7.35L74.81-7.35L74.81-3.04Q74.81-2.15 74.61-1.55Q74.41-0.94 74.06-0.57Q73.70-0.19 73.22-0.03Q72.74 0.13 72.18 0.13L72.18 0.13Q71.62 0.13 71.13-0.03Q70.65-0.19 70.29-0.57Q69.94-0.94 69.74-1.55Q69.54-2.15 69.54-3.04L69.54-3.04ZM76.15-0.95L76.71-1.60Q77.10-1.19 77.63-0.94Q78.16-0.68 78.73-0.68L78.73-0.68Q79.46-0.68 79.86-1.01Q80.27-1.34 80.27-1.88L80.27-1.88Q80.27-2.16 80.17-2.36Q80.08-2.55 79.91-2.69Q79.75-2.83 79.53-2.95Q79.30-3.06 79.05-3.18L79.05-3.18L77.99-3.64Q77.74-3.75 77.47-3.91Q77.20-4.07 76.99-4.29Q76.77-4.51 76.64-4.82Q76.50-5.13 76.50-5.53L76.50-5.53Q76.50-5.95 76.68-6.31Q76.85-6.66 77.16-6.93Q77.47-7.19 77.89-7.34Q78.31-7.48 78.81-7.48L78.81-7.48Q79.47-7.48 80.03-7.23Q80.59-6.98 80.98-6.57L80.98-6.57L80.48-5.97Q80.14-6.29 79.74-6.48Q79.33-6.66 78.81-6.66L78.81-6.66Q78.20-6.66 77.82-6.38Q77.45-6.09 77.45-5.59L77.45-5.59Q77.45-5.32 77.55-5.14Q77.66-4.95 77.84-4.81Q78.02-4.67 78.23-4.56Q78.44-4.46 78.67-4.37L78.67-4.37L79.71-3.92Q80.02-3.79 80.30-3.61Q80.58-3.44 80.78-3.21Q80.98-2.98 81.10-2.67Q81.22-2.36 81.22-1.96L81.22-1.96Q81.22-1.52 81.05-1.14Q80.87-0.76 80.55-0.48Q80.22-0.19 79.76-0.03Q79.30 0.13 78.72 0.13L78.72 0.13Q77.95 0.13 77.29-0.16Q76.63-0.45 76.15-0.95L76.15-0.95ZM82.66 0L82.66-7.35L86.90-7.35L86.90-6.56L83.59-6.56L83.59-4.26L86.38-4.26L86.38-3.46L83.59-3.46L83.59-0.80L87.01-0.80L87.01 0L82.66 0ZM92.35 0L92.35-6.56L90.13-6.56L90.13-7.35L95.51-7.35L95.51-6.56L93.29-6.56L93.29 0L92.35 0ZM99.27 0.13L99.27 0.13Q98.58 0.13 98.00-0.13Q97.43-0.40 97.01-0.90Q96.60-1.40 96.37-2.11Q96.14-2.82 96.14-3.71L96.14-3.71Q96.14-4.59 96.37-5.29Q96.60-5.99 97.01-6.48Q97.43-6.97 98.00-7.22Q98.58-7.48 99.27-7.48L99.27-7.48Q99.97-7.48 100.54-7.22Q101.12-6.95 101.54-6.47Q101.96-5.98 102.19-5.28Q102.42-4.58 102.42-3.71L102.42-3.71Q102.42-2.82 102.19-2.11Q101.96-1.40 101.54-0.90Q101.12-0.40 100.54-0.13Q99.97 0.13 99.27 0.13ZM99.27-0.68L99.27-0.68Q99.77-0.68 100.16-0.90Q100.56-1.11 100.85-1.51Q101.13-1.90 101.29-2.46Q101.45-3.01 101.45-3.71L101.45-3.71Q101.45-4.39 101.29-4.94Q101.13-5.49 100.85-5.87Q100.56-6.25 100.16-6.46Q99.77-6.66 99.27-6.66L99.27-6.66Q98.78-6.66 98.38-6.46Q97.99-6.25 97.70-5.87Q97.41-5.49 97.26-4.94Q97.10-4.39 97.10-3.71L97.10-3.71Q97.10-3.01 97.26-2.46Q97.41-1.90 97.70-1.51Q97.99-1.11 98.38-0.90Q98.78-0.68 99.27-0.68ZM106.26 0L106.26-7.35L110.50-7.35L110.50-6.56L107.19-6.56L107.19-4.26L109.98-4.26L109.98-3.46L107.19-3.46L107.19-0.80L110.61-0.80L110.61 0L106.26 0ZM112.16 0L112.16-7.35L113.13-7.35L115.78-2.73L116.58-1.21L116.62-1.21Q116.59-1.77 116.55-2.37Q116.51-2.97 116.51-3.55L116.51-3.55L116.51-7.35L117.39-7.35L117.39 0L116.43 0L113.77-4.63L112.97-6.14L112.93-6.14Q112.97-5.58 113.01-5.00Q113.05-4.42 113.05-3.84L113.05-3.84L113.05 0L112.16 0ZM118.75-1.04L119.42-1.51Q119.67-1.08 119.98-0.88Q120.29-0.68 120.69-0.68L120.69-0.68Q121.28-0.68 121.57-1.05Q121.86-1.41 121.86-2.25L121.86-2.25L121.86-7.35L122.80-7.35L122.80-2.16Q122.80-1.69 122.69-1.27Q122.57-0.85 122.33-0.54Q122.09-0.22 121.70-0.04Q121.31 0.13 120.78 0.13L120.78 0.13Q119.40 0.13 118.75-1.04L118.75-1.04ZM127.50 0.13L127.50 0.13Q126.80 0.13 126.23-0.13Q125.65-0.40 125.23-0.90Q124.82-1.40 124.59-2.11Q124.36-2.82 124.36-3.71L124.36-3.71Q124.36-4.59 124.59-5.29Q124.82-5.99 125.23-6.48Q125.65-6.97 126.23-7.22Q126.80-7.48 127.50-7.48L127.50-7.48Q128.19-7.48 128.77-7.22Q129.34-6.95 129.76-6.47Q130.18-5.98 130.41-5.28Q130.64-4.58 130.64-3.71L130.64-3.71Q130.64-2.82 130.41-2.11Q130.18-1.40 129.76-0.90Q129.34-0.40 128.77-0.13Q128.19 0.13 127.50 0.13ZM127.50-0.68L127.50-0.68Q127.99-0.68 128.39-0.90Q128.78-1.11 129.07-1.51Q129.36-1.90 129.51-2.46Q129.67-3.01 129.67-3.71L129.67-3.71Q129.67-4.39 129.51-4.94Q129.36-5.49 129.07-5.87Q128.78-6.25 128.39-6.46Q127.99-6.66 127.50-6.66L127.50-6.66Q127.00-6.66 126.61-6.46Q126.21-6.25 125.92-5.87Q125.64-5.49 125.48-4.94Q125.32-4.39 125.32-3.71L125.32-3.71Q125.32-3.01 125.48-2.46Q125.64-1.90 125.92-1.51Q126.21-1.11 126.61-0.90Q127.00-0.68 127.50-0.68ZM133.19 0L133.19-2.84L130.98-7.35L131.98-7.35L132.93-5.28Q133.11-4.87 133.28-4.48Q133.44-4.09 133.63-3.67L133.63-3.67L133.68-3.67Q133.87-4.09 134.06-4.48Q134.25-4.87 134.42-5.28L134.42-5.28L135.36-7.35L136.33-7.35L134.13-2.84L134.13 0L133.19 0ZM142.30 0.13L142.30 0.13Q141.61 0.13 141.03-0.13Q140.45-0.40 140.04-0.90Q139.63-1.40 139.40-2.11Q139.17-2.82 139.17-3.71L139.17-3.71Q139.17-4.59 139.40-5.29Q139.63-5.99 140.04-6.48Q140.45-6.97 141.03-7.22Q141.61-7.48 142.30-7.48L142.30-7.48Q143.00-7.48 143.57-7.22Q144.15-6.95 144.57-6.47Q144.99-5.98 145.22-5.28Q145.45-4.58 145.45-3.71L145.45-3.71Q145.45-2.82 145.22-2.11Q144.99-1.40 144.57-0.90Q144.15-0.40 143.57-0.13Q143.00 0.13 142.30 0.13ZM142.30-0.68L142.30-0.68Q142.79-0.68 143.19-0.90Q143.59-1.11 143.88-1.51Q144.16-1.90 144.32-2.46Q144.47-3.01 144.47-3.71L144.47-3.71Q144.47-4.39 144.32-4.94Q144.16-5.49 143.88-5.87Q143.59-6.25 143.19-6.46Q142.79-6.66 142.30-6.66L142.30-6.66Q141.81-6.66 141.41-6.46Q141.01-6.25 140.73-5.87Q140.44-5.49 140.29-4.94Q140.13-4.39 140.13-3.71L140.13-3.71Q140.13-3.01 140.29-2.46Q140.44-1.90 140.73-1.51Q141.01-1.11 141.41-0.90Q141.81-0.68 142.30-0.68ZM146.99-3.04L146.99-7.35L147.92-7.35L147.92-3.01Q147.92-2.35 148.06-1.90Q148.19-1.46 148.42-1.19Q148.65-0.92 148.97-0.80Q149.28-0.68 149.64-0.68L149.64-0.68Q150.01-0.68 150.32-0.80Q150.63-0.92 150.87-1.19Q151.11-1.46 151.24-1.90Q151.37-2.35 151.37-3.01L151.37-3.01L151.37-7.35L152.27-7.35L152.27-3.04Q152.27-2.15 152.07-1.55Q151.87-0.94 151.51-0.57Q151.16-0.19 150.68-0.03Q150.20 0.13 149.64 0.13L149.64 0.13Q149.08 0.13 148.59-0.03Q148.10-0.19 147.75-0.57Q147.40-0.94 147.20-1.55Q146.99-2.15 146.99-3.04L146.99-3.04ZM155.18-6.60L155.18-3.86L156.41-3.86Q157.28-3.86 157.74-4.22Q158.19-4.57 158.19-5.29L158.19-5.29Q158.19-6.01 157.74-6.31Q157.28-6.60 156.41-6.60L156.41-6.60L155.18-6.60ZM159.34 0L158.28 0L156.51-3.10L155.18-3.10L155.18 0L154.25 0L154.25-7.35L156.55-7.35Q157.11-7.35 157.58-7.24Q158.06-7.13 158.40-6.89Q158.74-6.64 158.93-6.25Q159.12-5.86 159.12-5.29L159.12-5.29Q159.12-4.42 158.68-3.91Q158.23-3.39 157.48-3.20L157.48-3.20L159.34 0ZM162.48-0.95L163.04-1.60Q163.44-1.19 163.97-0.94Q164.50-0.68 165.07-0.68L165.07-0.68Q165.80-0.68 166.20-1.01Q166.61-1.34 166.61-1.88L166.61-1.88Q166.61-2.16 166.51-2.36Q166.41-2.55 166.25-2.69Q166.09-2.83 165.87-2.95Q165.64-3.06 165.38-3.18L165.38-3.18L164.33-3.64Q164.07-3.75 163.81-3.91Q163.54-4.07 163.32-4.29Q163.11-4.51 162.98-4.82Q162.84-5.13 162.84-5.53L162.84-5.53Q162.84-5.95 163.02-6.31Q163.19-6.66 163.50-6.93Q163.81-7.19 164.23-7.34Q164.65-7.48 165.15-7.48L165.15-7.48Q165.81-7.48 166.37-7.23Q166.93-6.98 167.32-6.57L167.32-6.57L166.82-5.97Q166.48-6.29 166.07-6.48Q165.66-6.66 165.15-6.66L165.15-6.66Q164.53-6.66 164.16-6.38Q163.78-6.09 163.78-5.59L163.78-5.59Q163.78-5.32 163.89-5.14Q164.00-4.95 164.17-4.81Q164.35-4.67 164.57-4.56Q164.78-4.46 165.00-4.37L165.00-4.37L166.05-3.92Q166.36-3.79 166.64-3.61Q166.92-3.44 167.12-3.21Q167.32-2.98 167.44-2.67Q167.56-2.36 167.56-1.96L167.56-1.96Q167.56-1.52 167.38-1.14Q167.21-0.76 166.89-0.48Q166.56-0.19 166.10-0.03Q165.64 0.13 165.06 0.13L165.06 0.13Q164.29 0.13 163.63-0.16Q162.97-0.45 162.48-0.95L162.48-0.95ZM169.00 0L169.00-7.35L173.24-7.35L173.24-6.56L169.93-6.56L169.93-4.26L172.72-4.26L172.72-3.46L169.93-3.46L169.93-0.80L173.35-0.80L173.35 0L169.00 0ZM175.83-6.60L175.83-3.86L177.07-3.86Q177.93-3.86 178.39-4.22Q178.85-4.57 178.85-5.29L178.85-5.29Q178.85-6.01 178.39-6.31Q177.93-6.60 177.07-6.60L177.07-6.60L175.83-6.60ZM179.99 0L178.94 0L177.17-3.10L175.83-3.10L175.83 0L174.90 0L174.90-7.35L177.20-7.35Q177.76-7.35 178.24-7.24Q178.71-7.13 179.05-6.89Q179.40-6.64 179.59-6.25Q179.78-5.86 179.78-5.29L179.78-5.29Q179.78-4.42 179.33-3.91Q178.88-3.39 178.13-3.20L178.13-3.20L179.99 0ZM182.60 0L180.25-7.35L181.24-7.35L182.42-3.38Q182.62-2.72 182.77-2.16Q182.92-1.60 183.14-0.95L183.14-0.95L183.18-0.95Q183.38-1.60 183.54-2.16Q183.70-2.72 183.89-3.38L183.89-3.38L185.06-7.35L186.01-7.35L183.68 0L182.60 0ZM187.02 0L187.02-7.35L187.95-7.35L187.95 0L187.02 0ZM189.54-3.67L189.54-3.67Q189.54-4.56 189.79-5.26Q190.03-5.97 190.47-6.46Q190.91-6.95 191.51-7.22Q192.11-7.48 192.81-7.48L192.81-7.48Q193.48-7.48 193.99-7.21Q194.49-6.93 194.82-6.57L194.82-6.57L194.29-5.98Q194.00-6.29 193.65-6.48Q193.29-6.66 192.82-6.66L192.82-6.66Q192.30-6.66 191.87-6.46Q191.45-6.25 191.14-5.86Q190.84-5.48 190.67-4.93Q190.51-4.38 190.51-3.70L190.51-3.70Q190.51-3.00 190.67-2.45Q190.83-1.89 191.12-1.50Q191.41-1.11 191.83-0.90Q192.25-0.68 192.78-0.68L192.78-0.68Q193.32-0.68 193.71-0.90Q194.11-1.11 194.47-1.50L194.47-1.50L195.00-0.93Q194.56-0.43 194.01-0.15Q193.46 0.13 192.76 0.13L192.76 0.13Q192.06 0.13 191.47-0.12Q190.89-0.38 190.45-0.87Q190.02-1.36 189.78-2.07Q189.54-2.78 189.54-3.67ZM196.36 0L196.36-7.35L200.60-7.35L200.60-6.56L197.29-6.56L197.29-4.26L200.08-4.26L200.08-3.46L197.29-3.46L197.29-0.80L200.71-0.80L200.71 0L196.36 0Z" transform="translate(-1.0079641612742654, 7.4813339970134365)"></path></g></g></g></g><defs v-gra="od"></defs></svg>